/* XPM */
static char * logo_50_xpm[] = {
"50 50 33 1",
" 	c None",
".	c #F7F7F7",
"+	c #EFEFEF",
"@	c #DFDFDF",
"#	c #D7D7D7",
"$	c #E7E7E7",
"%	c #C7C7C7",
"&	c #9F9F9F",
"*	c #777777",
"=	c #BFBFBF",
"-	c #5F5F5F",
";	c #CFCFCF",
">	c #B7B7B7",
",	c #979797",
"'	c #676767",
")	c #878787",
"!	c #AFAFAF",
"~	c #A7A7A7",
"{	c #6F6F6F",
"]	c #8F8F8F",
"^	c #474747",
"/	c #2F2F2F",
"(	c #373737",
"_	c #0F0F0F",
":	c #575757",
"<	c #3F3F3F",
"[	c #272727",
"}	c #4F4F4F",
"|	c #7F7F7F",
"1	c #1F1F1F",
"2	c #000000",
"3	c #070707",
"4	c #171717",
".....#@##@;.........#]_(&3_4;+>)=......{$:&>{....+",
".....+%$=+%...........=413'[1>.>(:+....]%)|.).....",
"!+....>.%+#............%&11_^'';.'^=...]];'.~.....",
">'|;..;@++@$...........$.~3_^;~1:+;'*#.>{@^.,;....",
"..|[-#@@.+$#...........$;%^$-3];'<;.=[*.}@'$],....",
":*#$)[1:.;+>...........@~.{.@~/(!>-*#@<(1@-=~)....",
"${(->>{4<-.%$...........@.*%$.+&1:%]_*+,3{}!;,....",
":@+~^^~**:^'=...........$.&&;!..@-1~>[/@*22{#]....",
"&&,&.%}3*@}(/&..........#.!{#~....=/:=*4[*]_):....",
"..@*}]+~41^;/[&$........##;:.>......*4~]_^,14_#...",
"....@)-{[~_4/$$|*#......$#$($>+......>[()321=4^$..",
"......@|1*('3<>.!<~@.....&+(%)$...+...+{_[*3|}){=.",
"........-[_^/}/}=.!:|+...*.^,{>..+@.....,3'122].{)",
"........&=)22*$-1*@.:/!..~.**)!..........<22^<3!.*",
"........=>~',3:>@-1&.,/-$=+|*;=..........-)/_/3_,.",
"........;>#]#^&:->%//%+]}/@%}>!..........,&|234~^<",
"........$,$!%:..,/]+]/^+$</:/%>.+........!!~:;3(=)",
"........+*#*=}...+>&=+|1*&<4[&'..........!~!*.(<1!",
".........,@{;'.....$&:@!(2*,2_^..........>!#).<;%1",
".........%.&;-.......=-,@{2[/&_<$........>~#|.^=.@",
"&%.......&@}=-.........]<-<^_&/[[!.......!&@:.^!..",
"@~%+.....:;'#*..........%[(-332=&(]......!~@].)=.;",
"+..=]>...-@)#{+..........%/_/%4[%.'($....!~$*.&%..",
"~)#.%||#.'%)#-@..........%=!3^1)1&.,-;...!,.'.~#..",
"+%!#+.@,*/@)#:#..........!>#|{2*;((#@'{..&)+}+%...",
")=.+')@.~3'^;-@..........&%%,.[_'$&4].{*+&!.}$,...",
"$]!+$~:*+',4*^+..........;$=].^%**=;--.#-1)$<$|...",
"..+##.$>-[#:*3&..........$.=,.<$.%[|.*/;$1^#<@*...",
"....$;>@=2_1$}}~.........~%%,.^+..@/{.]_=-2<^+)...",
"......;'/(]21-.=&%.......%$%,$'....+~}%>[3&-_]*...",
".......$|_{/'2].$=%+.....$.!,+'......=1!+(^><_:...",
"........+--[,^))~.+@$....#.&&@{.......#/,{1_)!3&..",
"........@]@--/.#[*+.%&@..@.*!~'........#^2>'2'}}&.",
"........==%&=-=#$,^&.;~%.#.{&&{..........(4((_-.::",
"........&%=~>=.~#.;(|..|}*.*;){..........--3*-2{.,",
"........);)!>%..+&@.&|%.~3&-$|)..........!.{23-('.",
"........-#]#!;...$;@.='>+:-4.&=.........+*.*{_<@}*",
"........{#}#,......$%$.]1'$_]^#..........%.:@<4).:",
",......$|#<@|.......+>,.)_{^=4%..........=+'@<=>=.",
"/->....%]@].&.........>){(3[;(>@........+,#-@[#.=>",
".&(|@..~=>&;!..........%4-:34'.;%.......$!#)=/...;",
"]..)/,+-=,;&>...........'<_)'_=.@@......~|=]!}....",
"|^!.@'/[;|${@..........+&@_[*(^]..++....,=|]&-....",
"@!<'%.]2//@'...........+)+('2*+^'..#@...~;,=&&....",
",!+>(:-'-2<)...........$=@:.^^>+)]+.;@..}%{${>....",
".~~#;-2*'-[-.+@#%+.....$.>|.{$,].;'#.##${@-.<%....",
"...,^~[42={<)+;;#@.......)!#,..>*$;}&.$&~.>.'+..=.",
"....#}1,__(..+.@@#+....+.'+&%...;]@#(!.-^*#${.....",
".....|}/-*4}+..,>.....+@$,.,.....$*%+}**>(#=).....",
"....+<;}<[]~<!.%{@....;%%#@,......+%;+(/$,{/>.@..."};
